<svg viewBox="0 0 15 20" fill="none" xmlns="http://www.w3.org/2000/svg">
<path d="M7.25 20C6.81667 20 6.425 19.8958 6.075 19.6875C5.725 19.4792 5.45 19.2 5.25 18.85C4.7 18.85 4.22917 18.6542 3.8375 18.2625C3.44583 17.8708 3.25 17.4 3.25 16.85V13.3C2.26667 12.65 1.47917 11.7917 0.8875 10.725C0.295833 9.65833 0 8.5 0 7.25C0 5.23333 0.704167 3.52083 2.1125 2.1125C3.52083 0.704167 5.23333 0 7.25 0C9.26667 0 10.9792 0.704167 12.3875 2.1125C13.7958 3.52083 14.5 5.23333 14.5 7.25C14.5 8.53333 14.2042 9.7 13.6125 10.75C13.0208 11.8 12.2333 12.65 11.25 13.3V16.85C11.25 17.4 11.0542 17.8708 10.6625 18.2625C10.2708 18.6542 9.8 18.85 9.25 18.85C9.05 19.2 8.775 19.4792 8.425 19.6875C8.075 19.8958 7.68333 20 7.25 20ZM5.25 16.85H9.25V15.95H5.25V16.85ZM5.25 14.95H9.25V14H5.25V14.95ZM5.05 12H6.5V9.3L4.3 7.1L5.35 6.05L7.25 7.95L9.15 6.05L10.2 7.1L8 9.3V12H9.45C10.35 11.5667 11.0833 10.9292 11.65 10.0875C12.2167 9.24583 12.5 8.3 12.5 7.25C12.5 5.78333 11.9917 4.54167 10.975 3.525C9.95833 2.50833 8.71667 2 7.25 2C5.78333 2 4.54167 2.50833 3.525 3.525C2.50833 4.54167 2 5.78333 2 7.25C2 8.3 2.28333 9.24583 2.85 10.0875C3.41667 10.9292 4.15 11.5667 5.05 12Z" fill="#fff"/>
</svg>
