<svg viewBox="0 0 1412 241" fill="none" xmlns="http://www.w3.org/2000/svg">
<path d="M0.500002 237V7.19999H0.8L123.5 181.2L104.9 177L227.3 7.19999H227.9V237H184.4V105.3L187.1 127.8L112.4 234H111.8L35 127.8L42.5 107.1V237H0.500002ZM321.573 240.6C305.573 240.6 291.973 237.6 280.773 231.6C269.773 225.6 261.373 217.3 255.573 206.7C249.773 196.1 246.873 183.9 246.873 170.1C246.873 156.9 250.273 145 257.073 134.4C263.873 123.8 272.973 115.4 284.373 109.2C295.773 102.8 308.473 99.6 322.473 99.6C341.273 99.6 356.673 105.1 368.673 116.1C380.873 126.9 388.773 142.6 392.373 163.2L290.373 195.6L281.073 172.8L354.873 147.9L346.173 151.8C344.573 146.6 341.673 142.1 337.473 138.3C333.473 134.3 327.373 132.3 319.173 132.3C312.973 132.3 307.473 133.8 302.673 136.8C298.073 139.6 294.473 143.7 291.873 149.1C289.473 154.3 288.273 160.5 288.273 167.7C288.273 175.9 289.773 182.8 292.773 188.4C295.773 193.8 299.873 197.9 305.073 200.7C310.273 203.5 316.073 204.9 322.473 204.9C327.073 204.9 331.473 204.1 335.673 202.5C340.073 200.9 344.373 198.8 348.573 196.2L367.173 227.4C360.173 231.4 352.573 234.6 344.373 237C336.373 239.4 328.773 240.6 321.573 240.6ZM457.093 240.6C444.893 240.6 433.793 238.2 423.793 233.4C413.993 228.4 406.193 220.8 400.393 210.6C394.593 200.4 391.693 187.4 391.693 171.6C391.693 156.8 394.693 144 400.693 133.2C406.693 122.4 414.593 114.1 424.393 108.3C434.193 102.3 444.593 99.3 455.593 99.3C468.593 99.3 478.393 101.5 484.993 105.9C491.793 110.1 497.393 114.8 501.793 120L499.993 125.1L503.893 105.9H542.893V237H500.893V208.5L504.193 217.5C503.793 217.5 502.593 218.7 500.593 221.1C498.593 223.3 495.593 226 491.593 229.2C487.793 232.2 482.993 234.8 477.193 237C471.593 239.4 464.893 240.6 457.093 240.6ZM469.093 206.4C474.093 206.4 478.593 205.7 482.593 204.3C486.593 202.7 490.093 200.5 493.093 197.7C496.093 194.7 498.693 191 500.893 186.6V154.5C499.293 150.1 496.893 146.4 493.693 143.4C490.493 140.2 486.693 137.8 482.293 136.2C477.893 134.4 472.993 133.5 467.593 133.5C461.593 133.5 455.993 135.1 450.793 138.3C445.793 141.3 441.793 145.5 438.793 150.9C435.793 156.3 434.293 162.5 434.293 169.5C434.293 176.5 435.893 182.8 439.093 188.4C442.293 194 446.493 198.4 451.693 201.6C457.093 204.8 462.893 206.4 469.093 206.4ZM565.17 0.29999H607.17V237H565.17V0.29999ZM636.324 16.2H774.324V58.2H679.824V108.3H761.724V150.3H679.824V237H636.324V16.2ZM788.307 105.9H830.307V237H788.307V105.9ZM787.407 59.4C787.407 53.2 789.807 48.1 794.607 44.1C799.607 40.1 804.907 38.1 810.507 38.1C816.107 38.1 821.207 40.1 825.807 44.1C830.607 48.1 833.007 53.2 833.007 59.4C833.007 65.6 830.607 70.7 825.807 74.7C821.207 78.5 816.107 80.4 810.507 80.4C804.907 80.4 799.607 78.5 794.607 74.7C789.807 70.7 787.407 65.6 787.407 59.4ZM890.661 105.9L893.961 129.3L893.361 127.2C897.961 119 904.461 112.4 912.861 107.4C921.261 102.2 931.561 99.6 943.761 99.6C956.161 99.6 966.461 103.3 974.661 110.7C983.061 117.9 987.361 127.3 987.561 138.9V237H945.561V154.5C945.361 148.7 943.761 144.1 940.761 140.7C937.961 137.1 933.161 135.3 926.361 135.3C919.961 135.3 914.361 137.4 909.561 141.6C904.761 145.8 901.061 151.5 898.461 158.7C895.861 165.9 894.561 174.2 894.561 183.6V237H852.561V105.9H890.661ZM1063.09 240.6C1050.89 240.6 1039.99 237.8 1030.39 232.2C1020.79 226.4 1013.19 218.1 1007.59 207.3C1002.19 196.5 999.486 183.7 999.486 168.9C999.486 154.1 1002.49 141.5 1008.49 131.1C1014.49 120.7 1022.69 112.8 1033.09 107.4C1043.49 102 1055.29 99.3 1068.49 99.3C1076.89 99.3 1084.89 100.6 1092.49 103.2C1100.29 105.8 1106.79 109.8 1111.99 115.2V128.4V0.29999H1153.69V237H1111.69V211.5L1114.99 220.5C1108.19 226.1 1100.59 230.9 1092.19 234.9C1083.79 238.7 1074.09 240.6 1063.09 240.6ZM1076.89 205.2C1082.49 205.2 1087.39 204.5 1091.59 203.1C1095.99 201.5 1099.79 199.3 1102.99 196.5C1106.39 193.5 1109.29 189.8 1111.69 185.4V153.3C1110.09 148.9 1107.59 145.2 1104.19 142.2C1100.99 139 1096.99 136.6 1092.19 135C1087.59 133.2 1082.49 132.3 1076.89 132.3C1070.69 132.3 1064.89 133.9 1059.49 137.1C1054.29 140.1 1050.09 144.3 1046.89 149.7C1043.69 155.1 1042.09 161.3 1042.09 168.3C1042.09 175.3 1043.69 181.6 1046.89 187.2C1050.09 192.8 1054.29 197.2 1059.49 200.4C1064.89 203.6 1070.69 205.2 1076.89 205.2ZM1240.39 240.6C1224.39 240.6 1210.79 237.6 1199.59 231.6C1188.59 225.6 1180.19 217.3 1174.39 206.7C1168.59 196.1 1165.69 183.9 1165.69 170.1C1165.69 156.9 1169.09 145 1175.89 134.4C1182.69 123.8 1191.79 115.4 1203.19 109.2C1214.59 102.8 1227.29 99.6 1241.29 99.6C1260.09 99.6 1275.49 105.1 1287.49 116.1C1299.69 126.9 1307.59 142.6 1311.19 163.2L1209.19 195.6L1199.89 172.8L1273.69 147.9L1264.99 151.8C1263.39 146.6 1260.49 142.1 1256.29 138.3C1252.29 134.3 1246.19 132.3 1237.99 132.3C1231.79 132.3 1226.29 133.8 1221.49 136.8C1216.89 139.6 1213.29 143.7 1210.69 149.1C1208.29 154.3 1207.09 160.5 1207.09 167.7C1207.09 175.9 1208.59 182.8 1211.59 188.4C1214.59 193.8 1218.69 197.9 1223.89 200.7C1229.09 203.5 1234.89 204.9 1241.29 204.9C1245.89 204.9 1250.29 204.1 1254.49 202.5C1258.89 200.9 1263.19 198.8 1267.39 196.2L1285.99 227.4C1278.99 231.4 1271.39 234.6 1263.19 237C1255.19 239.4 1247.59 240.6 1240.39 240.6ZM1358.51 105.9L1362.41 141.9L1361.51 136.5C1365.31 128.7 1370.51 122.1 1377.11 116.7C1383.71 111.1 1390.21 106.8 1396.61 103.8C1403.21 100.8 1408.21 99.3 1411.61 99.3L1409.51 141.3C1399.71 140.1 1391.31 141.7 1384.31 146.1C1377.31 150.5 1371.91 156.3 1368.11 163.5C1364.31 170.7 1362.41 178.1 1362.41 185.7V237H1320.71V105.9H1358.51Z" fill="url(#paint0_linear_4143_1210)"/>
<defs>
<linearGradient id="paint0_linear_4143_1210" x1="1447.75" y1="12.0003" x2="-29.3048" y2="241.678" gradientUnits="userSpaceOnUse">
<stop stop-color="#00DA8B"/>
<stop offset="0.335" stop-color="#3F7CF1"/>
<stop offset="0.595" stop-color="#476FFF"/>
<stop offset="0.875" stop-color="#00DAAD"/>
</linearGradient>
</defs>
</svg>
