<svg viewBox="0 0 820 800" fill="none" xmlns="http://www.w3.org/2000/svg">
<path d="M400 800C344.667 800 292.667 789.5 244 768.5C195.333 747.5 153 719 117 683C81 647 52.5 604.667 31.5 556C10.5 507.333 0 455.333 0 400C0 344.667 10.5 292.667 31.5 244C52.5 195.333 81 153 117 117C153 81 195.333 52.5 244 31.5C292.667 10.5 344.667 0 400 0C497.333 0 582.5 30.5 655.5 91.5C728.5 152.5 774 229 792 321H710C697.333 272.333 674.5 228.833 641.5 190.5C608.5 152.167 568 123.333 520 104V120C520 142 512.167 160.833 496.5 176.5C480.833 192.167 462 200 440 200H360V280C360 291.333 356.167 300.833 348.5 308.5C340.833 316.167 331.333 320 320 320H240V400H320V520H280L88 328C86 340 84.1667 352 82.5 364C80.8333 376 80 388 80 400C80 487.333 110.667 562.333 172 625C233.333 687.667 309.333 719.333 400 720V800ZM764 780L636 652C622 660 607 666.667 591 672C575 677.333 558 680 540 680C490 680 447.5 662.5 412.5 627.5C377.5 592.5 360 550 360 500C360 450 377.5 407.5 412.5 372.5C447.5 337.5 490 320 540 320C590 320 632.5 337.5 667.5 372.5C702.5 407.5 720 450 720 500C720 518 717.333 535 712 551C706.667 567 700 582 692 596L820 724L764 780ZM540 600C568 600 591.667 590.333 611 571C630.333 551.667 640 528 640 500C640 472 630.333 448.333 611 429C591.667 409.667 568 400 540 400C512 400 488.333 409.667 469 429C449.667 448.333 440 472 440 500C440 528 449.667 551.667 469 571C488.333 590.333 512 600 540 600Z" fill="#fff"/>
</svg>
